<?xml version="1.0" standalone="no"?>
<!DOCTYPE svg PUBLIC "-//W3C//DTD SVG 20010904//EN"
 "http://www.w3.org/TR/2001/REC-SVG-20010904/DTD/svg10.dtd">
<svg version="1.0" xmlns="http://www.w3.org/2000/svg"
 width="784.000000pt" height="784.000000pt" viewBox="0 0 784.000000 784.000000"
 preserveAspectRatio="xMidYMid meet">
<metadata>
Created by potrace 1.14, written by Peter Selinger 2001-2017
</metadata>
<g transform="translate(0.000000,784.000000) scale(0.100000,-0.100000)"
fill="#000000" stroke="none">
<path d="M3336 6783 c-1 -1 -46 -4 -101 -8 -55 -3 -118 -7 -140 -10 -22 -2
-62 -7 -90 -10 -78 -8 -180 -23 -205 -30 -8 -3 -33 -7 -54 -11 -35 -5 -95 -18
-206 -44 -80 -18 -261 -70 -275 -79 -5 -3 -12 -6 -15 -6 -5 -1 -113 -41 -140
-52 -8 -3 -17 -7 -20 -8 -3 -1 -14 -5 -25 -10 -11 -4 -42 -17 -69 -27 -50 -19
-98 -48 -80 -48 5 0 14 4 19 9 9 9 140 58 175 66 8 2 27 8 42 14 64 24 313 87
418 105 14 2 53 9 87 15 35 7 82 14 105 17 24 2 57 6 73 9 17 2 62 7 100 10
39 4 86 9 105 11 19 2 152 7 295 10 l260 6 75 31 c41 17 78 33 82 37 5 3 -87
6 -203 5 -116 0 -212 -1 -213 -2z"/>
<path d="M3820 6761 c-69 -27 -120 -50 -120 -54 0 -2 26 -4 58 -4 31 -1 97 -4
146 -7 73 -6 96 -3 125 10 20 10 56 26 81 35 25 10 41 19 35 20 -29 4 -71 7
-170 12 -91 5 -118 3 -155 -12z"/>
<path d="M4160 6718 l-75 -32 35 -7 c19 -4 62 -10 95 -13 33 -2 83 -8 110 -11
43 -5 60 -2 119 25 37 17 66 33 64 36 -3 2 -27 7 -54 10 -27 3 -60 7 -73 9
-106 18 -146 15 -221 -17z"/>
<path d="M3250 6652 c-14 -2 -44 -18 -68 -35 -103 -77 -114 -87 -101 -92 8 -2
78 -3 156 -2 l142 3 68 54 c37 29 72 57 77 61 9 8 -228 17 -274 11z"/>
<path d="M3099 6646 c-2 -3 -49 -7 -104 -10 -121 -8 -175 -15 -175 -25 0 -4
-13 -15 -30 -24 -16 -10 -35 -23 -42 -30 -7 -7 -31 -25 -53 -41 l-40 -27 70 5
c39 3 108 8 155 12 88 6 84 4 175 76 52 42 66 56 57 61 -5 4 -11 5 -13 3z"/>
<path d="M2666 6603 c-1 -2 -22 -6 -47 -9 -24 -3 -53 -8 -64 -9 -43 -7 -98
-17 -119 -21 -11 -2 -32 -6 -46 -9 -36 -7 -58 -12 -115 -25 -27 -6 -60 -14
-72 -16 -12 -2 -34 -9 -48 -14 -14 -5 -25 -7 -25 -4 0 4 -7 0 -17 -7 -9 -8
-18 -13 -20 -11 -2 2 -29 -5 -61 -14 -31 -10 -59 -18 -62 -18 -11 -2 -136 -49
-157 -58 -11 -6 -27 -7 -34 -3 -7 5 -10 4 -5 -3 3 -6 -4 -14 -16 -18 -26 -7
-232 -109 -293 -144 -51 -29 -271 -182 -310 -217 -21 -18 -23 -21 -5 -9 14 9
32 19 40 23 8 4 17 10 20 13 7 9 135 82 195 111 28 13 52 26 55 29 4 5 69 32
245 105 41 17 269 90 325 104 121 31 269 60 335 66 150 15 174 23 274 97 84
62 91 68 62 66 -18 -1 -33 -4 -35 -5z"/>
<path d="M2943 6430 l-82 -5 -51 -65 c-29 -36 -61 -76 -72 -89 l-20 -23 168 7
c93 3 169 7 169 8 7 14 111 154 119 159 7 5 7 8 1 9 -24 4 -157 4 -232 -1z"/>
<path d="M3234 6377 c-26 -34 -52 -74 -60 -89 l-14 -26 128 -1 c70 -1 146 -2
170 -4 23 -1 42 1 42 6 0 10 53 91 63 95 4 2 7 9 7 17 0 7 7 18 15 25 36 30
16 35 -145 37 l-161 2 -45 -62z"/>
<path d="M2709 6416 c-2 -2 -35 -7 -74 -10 -38 -3 -81 -8 -95 -10 -14 -3 -74
-12 -135 -21 -60 -9 -166 -28 -235 -42 -69 -13 -136 -27 -149 -29 -14 -3 -58
-14 -100 -26 -41 -11 -80 -21 -86 -23 -5 -1 -17 -5 -25 -8 -8 -3 -46 -15 -85
-26 -171 -52 -399 -154 -565 -254 -47 -28 -89 -55 -95 -59 -5 -4 -51 -39 -102
-77 -139 -105 -272 -228 -343 -320 -19 -25 -52 -63 -72 -85 -21 -23 -38 -44
-38 -47 0 -4 -13 -21 -29 -40 -17 -18 -28 -35 -26 -38 3 -2 15 9 27 25 53 71
262 267 359 337 59 42 111 77 117 77 6 0 12 4 14 8 4 11 139 86 238 134 205
98 547 212 751 252 13 2 44 9 69 15 51 11 90 19 140 27 19 3 54 10 77 15 24 5
46 8 50 7 5 -1 26 1 48 5 22 4 56 10 75 12 121 15 147 18 160 21 8 1 20 3 26
3 6 1 38 36 70 78 79 103 79 103 56 103 -10 0 -21 -2 -23 -4z"/>
<path d="M2848 6044 c-26 -57 -48 -108 -48 -114 0 -12 5 -13 90 -10 36 1 107
2 157 3 l92 0 31 76 c17 42 38 90 46 108 8 17 14 34 14 38 0 3 -75 5 -167 4
l-166 -3 -49 -102z"/>
<path d="M2697 6133 c-1 -1 -45 -4 -97 -8 -52 -3 -104 -7 -115 -8 -15 -2 -34
-30 -72 -107 -29 -58 -51 -109 -50 -115 3 -8 73 -9 116 0 10 2 57 6 107 10 96
7 118 19 130 74 4 14 12 33 19 41 6 8 14 22 18 30 3 8 12 32 21 53 l17 38 -46
-3 c-26 -2 -47 -4 -48 -5z"/>
<path d="M2240 6084 c-41 -8 -133 -26 -205 -40 -71 -14 -138 -28 -148 -30 -10
-2 -27 -6 -37 -9 -10 -3 -28 -8 -39 -10 -12 -3 -29 -7 -38 -9 -79 -18 -338
-99 -413 -129 -14 -6 -27 -11 -30 -12 -143 -49 -474 -226 -564 -302 -12 -10
-44 -36 -71 -57 -62 -49 -218 -205 -271 -271 -53 -65 -131 -183 -177 -265 -50
-92 -188 -448 -167 -435 6 3 51 115 55 135 1 7 56 114 87 170 47 84 63 110 71
110 4 0 7 7 7 15 0 8 4 15 8 15 4 0 16 15 27 33 52 89 337 341 471 416 16 9
31 18 34 21 27 27 349 178 405 190 6 1 15 5 20 10 20 15 372 124 444 136 14 3
51 11 81 19 63 16 186 42 244 51 21 3 48 8 60 10 22 4 63 11 110 19 16 2 30 5
31 7 7 8 105 215 105 221 0 9 -9 8 -100 -9z"/>
<path d="M2878 5785 c-1 -2 -55 -7 -118 -10 -145 -9 -167 -11 -265 -19 -100
-9 -279 -30 -330 -40 -11 -2 -45 -7 -75 -11 -46 -6 -228 -40 -320 -59 -14 -3
-36 -8 -50 -11 -14 -3 -34 -7 -45 -10 -170 -35 -487 -143 -645 -218 -47 -22
-87 -41 -90 -41 -23 -4 -294 -171 -326 -201 -6 -5 -26 -21 -44 -35 -107 -80
-244 -229 -335 -365 -50 -74 -138 -251 -149 -298 -4 -15 -11 -25 -16 -22 -5 3
-7 -1 -4 -9 3 -8 1 -30 -5 -49 -7 -19 -14 -45 -16 -58 -8 -43 -24 -123 -31
-154 -9 -43 -12 -435 -3 -465 4 -15 8 14 9 75 2 185 12 258 54 425 33 127 119
297 218 427 72 96 211 228 315 301 48 34 93 66 100 72 7 6 25 16 40 22 15 7
30 15 33 18 12 14 193 102 295 143 130 53 347 124 465 152 8 2 47 11 85 20
118 28 332 67 440 80 28 4 64 9 80 12 41 7 68 10 155 18 230 23 348 31 497 34
43 1 47 6 58 61 2 12 7 30 10 40 3 10 8 27 10 37 2 10 11 41 19 68 9 28 16 53
16 56 0 8 -26 19 -32 14z"/>
<path d="M3006 5735 c-8 -27 -20 -70 -27 -95 -7 -25 -14 -49 -15 -55 -2 -5 -6
-24 -9 -40 l-5 -30 182 0 182 0 17 70 c10 39 25 98 32 131 l15 62 -67 1 c-36
1 -117 3 -178 4 l-113 3 -14 -51z"/>
<path d="M3481 5733 c-30 -120 -51 -208 -51 -219 0 -7 8 -12 18 -12 17 1 187
-9 294 -17 l57 -4 12 57 c7 31 20 89 29 127 10 39 15 73 11 77 -6 7 -74 13
-258 24 l-102 5 -10 -38z"/>
<path d="M2927 5343 c-1 0 -94 -4 -207 -8 -249 -8 -403 -17 -495 -30 -16 -2
-61 -7 -100 -10 -38 -4 -77 -9 -85 -10 -8 -1 -33 -5 -55 -9 -22 -3 -56 -8 -75
-11 -19 -2 -46 -7 -60 -9 -14 -3 -42 -7 -63 -10 -21 -4 -73 -13 -115 -22 -42
-9 -85 -18 -96 -20 -96 -19 -397 -109 -481 -144 -16 -7 -35 -14 -41 -15 -6 -2
-67 -30 -135 -62 -224 -107 -393 -226 -531 -372 -73 -77 -188 -236 -188 -259
0 -6 -3 -12 -8 -14 -8 -4 -71 -137 -77 -165 -2 -10 -10 -37 -19 -60 -8 -24
-13 -43 -11 -43 3 0 1 -10 -4 -23 -5 -13 -12 -39 -15 -58 -3 -19 -8 -45 -11
-59 -5 -23 -18 -193 -16 -215 0 -5 2 -36 4 -67 3 -39 1 -58 -7 -58 -8 0 -8 -2
0 -8 7 -4 15 -34 19 -67 3 -32 8 -62 10 -65 2 -3 6 -24 9 -46 6 -46 32 -149
48 -194 3 -8 18 -51 33 -95 15 -44 53 -132 84 -195 79 -159 133 -250 115 -192
-4 11 1 8 15 -8 11 -14 21 -29 21 -34 0 -4 28 -40 62 -80 82 -94 82 -94 70
-71 -13 26 -82 128 -90 135 -4 3 -14 14 -22 24 -10 14 -11 17 -2 12 9 -5 7 5
-6 30 -54 109 -77 160 -74 167 1 4 -2 7 -8 7 -5 0 -24 21 -41 48 -18 26 -36
49 -39 52 -9 6 -40 67 -40 77 0 4 23 -28 51 -72 59 -94 75 -111 65 -75 -4 14
-9 33 -11 43 -2 10 -7 27 -10 38 -4 10 -8 31 -10 47 -2 15 -4 27 -5 27 -7 0
-22 138 -25 219 -2 85 17 220 43 301 87 267 297 486 612 637 83 41 241 105
274 113 12 3 74 21 139 40 105 31 247 64 347 80 19 3 46 7 60 10 14 2 45 7 70
10 25 3 56 8 70 10 37 7 97 14 170 20 99 9 120 12 125 16 4 5 12 80 20 193 4
44 6 82 7 85 2 18 -3 32 -9 28 -5 -3 -35 -8 -68 -11 -33 -4 -78 -9 -100 -12
-46 -6 -220 -32 -250 -38 -11 -2 -40 -7 -65 -12 -25 -4 -47 -8 -50 -9 -7 -2
-81 -17 -100 -20 -8 -2 -35 -8 -60 -15 -25 -7 -56 -14 -68 -16 -13 -3 -88 -25
-165 -50 -78 -24 -146 -46 -152 -48 -40 -12 -195 -81 -270 -119 -195 -99 -420
-281 -501 -407 -16 -25 -32 -47 -36 -50 -11 -8 -84 -162 -98 -205 -7 -22 -16
-51 -21 -65 -4 -14 -10 -38 -14 -55 -3 -16 -8 -41 -11 -55 -9 -45 -12 -274 -3
-297 5 -13 4 -25 -1 -28 -6 -4 -10 0 -11 7 0 7 -3 24 -6 38 -3 14 -6 99 -7
190 -1 190 14 280 70 427 33 86 105 217 149 273 48 59 164 174 215 213 30 23
57 45 60 48 26 30 247 151 375 204 50 20 99 41 110 46 26 12 237 77 267 83 7
2 33 8 58 15 25 7 57 15 72 16 15 2 46 9 70 15 47 13 52 14 118 25 25 4 52 9
60 10 15 3 84 13 130 20 87 13 256 32 351 40 338 26 567 30 1074 22 l129 -2
17 90 c17 95 25 133 35 178 3 15 2 27 -3 28 -56 6 -551 18 -556 12z m-2770
-2045 c4 -28 -6 -18 -12 12 -2 12 -1 20 2 16 4 -4 8 -16 10 -28z m142 -433
c11 -19 20 -38 20 -42 0 -3 3 -9 8 -12 5 -3 23 -26 42 -51 31 -43 31 -43 2
-11 -27 31 -29 32 -25 10 5 -22 -33 46 -63 114 -17 38 -9 34 16 -8z"/>
<path d="M3591 5293 c-17 -64 -51 -256 -47 -261 5 -5 47 -8 201 -17 61 -3 122
-8 137 -9 28 -3 30 0 43 79 5 27 16 81 20 95 1 3 5 29 10 57 4 29 8 56 9 60 0
3 -17 7 -39 9 -22 1 -74 5 -115 8 -41 3 -105 8 -142 11 l-67 5 -10 -37z"/>
<path d="M7242 5310 c7 -11 16 -20 20 -20 5 0 8 -5 8 -11 0 -11 55 -95 77
-117 7 -8 11 -18 8 -23 -4 -5 1 -9 9 -9 8 0 23 -13 33 -30 9 -16 21 -30 26
-30 5 0 0 16 -12 35 -11 19 -17 35 -12 35 11 0 37 -61 33 -79 -2 -8 1 -10 9
-5 9 5 10 2 6 -9 -3 -10 -2 -17 3 -17 5 0 15 -13 24 -30 8 -16 11 -30 7 -30
-4 0 -12 8 -17 18 -16 32 -89 131 -97 132 -11 0 54 -124 105 -203 25 -37 48
-64 52 -60 4 5 6 4 5 -2 -2 -5 5 -25 15 -43 35 -66 8 -41 -40 38 -49 80 -72
103 -54 54 6 -15 15 -47 21 -73 6 -25 13 -55 15 -66 3 -11 7 -33 9 -50 3 -16
7 -43 11 -59 20 -94 -1 -324 -41 -442 -112 -329 -423 -584 -900 -737 -101 -33
-176 -54 -215 -62 -8 -2 -42 -10 -75 -19 -58 -14 -102 -23 -155 -31 -14 -2
-49 -9 -78 -14 -29 -6 -56 -10 -60 -10 -4 1 -9 0 -12 -1 -3 -1 -16 -3 -30 -5
-14 -1 -47 -5 -75 -9 -100 -13 -121 -16 -189 -21 -38 -3 -72 -8 -75 -11 -3 -3
-6 -22 -7 -42 -1 -32 -13 -213 -16 -231 -4 -33 -6 -33 127 -16 54 7 189 26
215 31 14 3 41 7 60 9 19 3 46 7 60 10 192 39 269 56 371 84 85 23 279 86 324
106 420 183 657 378 786 645 26 54 67 160 73 192 3 13 7 34 10 48 24 110 24
390 0 433 -5 8 -4 9 4 2 6 -5 13 -26 15 -45 3 -19 6 -35 7 -35 11 0 16 -336 6
-408 -18 -130 -115 -387 -173 -454 -10 -11 -25 -31 -33 -44 -8 -12 -31 -41
-50 -63 -177 -202 -413 -352 -745 -471 -85 -31 -281 -89 -335 -99 -14 -3 -34
-7 -45 -10 -97 -23 -290 -58 -395 -71 -25 -3 -56 -7 -70 -10 -14 -2 -56 -7
-95 -11 -38 -3 -83 -8 -100 -9 -16 -2 -70 -6 -120 -10 -49 -3 -117 -9 -150
-12 -81 -7 -778 -10 -888 -3 -49 3 -92 3 -96 0 -4 -3 -18 -57 -30 -121 -37
-193 -38 -176 6 -181 45 -5 826 -1 898 5 28 3 95 8 150 11 55 4 118 9 140 11
22 3 65 7 95 10 30 3 66 8 80 10 14 2 46 7 72 10 85 9 301 46 368 61 36 9 76
18 90 20 46 9 214 55 290 79 240 77 455 178 634 297 110 74 254 208 329 308
23 30 44 57 47 60 7 6 49 78 84 144 23 44 71 165 81 206 46 183 46 184 48 355
3 200 -8 287 -60 484 -30 116 -68 213 -140 361 -72 148 -111 210 -130 210 -10
0 -13 6 -9 17 4 10 4 14 0 10 -7 -7 -114 107 -114 122 0 3 -9 12 -20 19 -19
12 -20 11 -8 -8z"/>
<path d="M4079 5289 c0 -2 -3 -15 -5 -29 -2 -14 -15 -79 -28 -145 -13 -66 -24
-121 -23 -121 1 -1 40 -5 87 -8 103 -9 158 -14 226 -21 l50 -5 23 118 c12 64
25 129 27 144 6 31 -1 34 -96 44 -36 3 -76 8 -90 9 -77 9 -170 17 -171 14z"/>
<path d="M2586 4873 c-1 -1 -59 -3 -128 -4 -70 -1 -132 -5 -137 -8 -5 -3 -12
-42 -16 -86 -4 -44 -8 -93 -10 -110 -1 -16 -4 -48 -6 -70 l-4 -40 80 1 c197 4
255 7 256 13 4 31 18 163 25 236 l6 71 -32 -1 c-17 0 -32 -1 -34 -2z"/>
<path d="M2754 4816 c-4 -34 -8 -72 -10 -86 -2 -14 -6 -52 -9 -85 -4 -33 -8
-65 -10 -71 -2 -7 31 -11 94 -13 53 -1 129 -3 169 -4 40 -2 77 0 81 3 4 3 13
43 19 90 12 82 16 107 27 178 4 21 2 34 -7 37 -7 3 -88 6 -180 8 l-166 3 -8
-60z"/>
<path d="M7750 4158 c0 -7 -2 -76 -5 -153 -4 -133 -8 -178 -21 -235 -3 -14 -8
-36 -10 -50 -3 -14 -12 -50 -21 -80 -9 -30 -17 -59 -19 -65 -6 -27 -65 -159
-90 -202 -98 -170 -255 -346 -399 -448 -38 -27 -71 -53 -73 -57 -2 -5 -8 -8
-12 -8 -5 0 -28 -13 -52 -29 -24 -16 -72 -44 -108 -62 -36 -18 -67 -35 -70
-39 -3 -4 -16 -11 -30 -15 -13 -4 -56 -22 -95 -40 -82 -38 -280 -110 -370
-135 -142 -39 -422 -104 -495 -113 -19 -3 -64 -10 -100 -16 -36 -6 -84 -13
-107 -16 -92 -11 -287 -34 -293 -33 -3 0 -7 0 -10 -1 -3 -1 -32 -3 -65 -6 -33
-2 -107 -7 -165 -10 -58 -4 -127 -8 -153 -9 -53 -2 -60 -9 -76 -72 -5 -21 -20
-76 -33 -120 l-24 -82 55 4 c248 14 283 16 416 30 28 3 68 6 90 8 44 4 116 14
155 21 14 3 45 7 70 10 25 3 70 10 100 15 30 5 71 12 90 15 19 3 53 10 75 15
22 5 56 12 75 15 136 23 472 124 640 192 84 34 290 132 300 143 3 3 21 14 40
24 49 27 190 121 222 148 14 13 44 37 65 55 82 66 195 191 262 288 74 107 173
305 181 360 0 3 7 22 15 44 7 22 16 56 19 76 4 21 9 41 12 46 3 5 7 23 9 41 2
18 7 56 11 83 11 78 9 475 -3 475 -1 0 -3 -6 -3 -12z"/>
<path d="M10 3661 c0 -6 4 -12 8 -15 5 -3 9 1 9 9 0 8 -4 15 -9 15 -4 0 -8 -4
-8 -9z"/>
<path d="M4685 3232 c-5 -31 -9 -64 -10 -72 -1 -8 -5 -33 -9 -55 -8 -47 -16
-125 -13 -126 1 0 82 -3 180 -5 l177 -5 1 23 c2 39 6 81 13 123 3 22 8 69 11
105 l5 65 -174 2 -174 3 -7 -58z"/>
<path d="M5152 3275 c-8 -13 -9 -21 -17 -113 -7 -81 -13 -143 -16 -158 -6 -33
0 -34 163 -29 90 3 166 9 169 13 7 7 10 33 25 225 l6 77 -162 -2 c-94 -2 -165
-7 -168 -13z"/>
<path d="M7660 3274 c0 -34 -105 -244 -172 -344 -231 -342 -597 -589 -1132
-765 -76 -25 -166 -53 -200 -61 -34 -8 -68 -17 -76 -19 -26 -6 -233 -54 -265
-60 -76 -15 -194 -35 -234 -40 -25 -3 -46 -6 -47 -8 -1 -1 -27 -53 -57 -115
l-55 -114 46 6 c26 3 61 8 77 11 44 8 287 56 305 60 468 109 787 235 1070 423
69 46 130 88 135 95 6 7 34 32 63 56 136 111 341 361 393 479 7 17 17 32 21
32 5 0 8 4 8 9 0 5 13 38 29 73 30 66 42 96 47 113 1 6 16 47 33 93 35 93 35
92 21 92 -5 0 -10 -7 -10 -16z"/>
<path d="M3386 2881 c-3 -4 -8 -21 -10 -37 -3 -16 -8 -40 -11 -54 -4 -14 -8
-34 -9 -45 -2 -11 -9 -49 -15 -84 -7 -34 -11 -65 -9 -67 2 -2 26 -6 54 -9 104
-11 141 -15 194 -20 30 -3 67 -8 83 -10 15 -3 28 -1 28 5 1 5 2 13 3 18 5 22
16 81 21 112 3 19 12 62 20 95 7 33 12 62 10 64 -5 4 -45 9 -131 15 -67 5
-166 15 -201 21 -13 2 -25 0 -27 -4z"/>
<path d="M3859 2839 c0 -2 -2 -11 -4 -19 -2 -8 -6 -31 -9 -50 -4 -19 -13 -66
-21 -105 -29 -136 -31 -125 28 -126 29 -1 66 -3 82 -5 17 -2 58 -5 92 -7 35
-2 65 -5 67 -8 3 -3 21 -3 40 -1 40 5 41 7 62 127 3 17 12 61 20 99 8 38 13
70 12 71 -2 2 -46 6 -98 9 -52 3 -134 9 -182 12 -49 3 -88 5 -89 3z"/>
<path d="M7281 2515 c-23 -30 -47 -55 -53 -55 -6 0 -9 -3 -5 -6 6 -7 -94 -108
-179 -181 -73 -63 -179 -139 -269 -193 -118 -71 -395 -207 -395 -194 0 2 -15
-3 -32 -12 -36 -19 -268 -96 -363 -120 -57 -15 -69 -18 -113 -28 -9 -2 -35 -9
-57 -15 -22 -5 -56 -13 -75 -16 -19 -3 -46 -8 -60 -10 -102 -21 -107 -22 -265
-44 -192 -27 -217 -30 -242 -31 -14 0 -32 -15 -51 -42 -17 -24 -39 -54 -51
-68 -63 -76 -63 -74 10 -66 35 3 75 8 89 10 14 3 48 7 75 11 51 6 160 22 205
30 14 3 45 8 70 11 25 3 48 8 51 10 4 2 24 6 45 10 22 3 75 15 119 25 44 11
91 22 104 25 14 3 28 7 31 9 4 2 21 7 39 10 152 27 570 205 718 306 23 16 46
29 51 29 6 0 12 3 14 8 2 4 26 22 53 41 28 19 64 46 82 60 148 121 230 195
278 252 138 165 233 289 222 289 -2 0 -23 -25 -46 -55z"/>
<path d="M3970 2354 c-6 -7 -13 -25 -16 -41 -3 -15 -12 -57 -20 -93 -29 -125
-29 -125 8 -126 44 -1 223 -14 273 -19 46 -5 63 3 68 30 1 11 6 26 10 33 5 6
6 12 4 12 -3 0 5 37 17 83 30 113 31 110 -34 112 -61 3 -230 14 -272 19 -16 2
-33 -3 -38 -10z"/>
<path d="M4455 2330 c-2 -4 -6 -17 -8 -31 -3 -13 -10 -44 -17 -69 -7 -25 -14
-52 -16 -60 -2 -8 -8 -33 -13 -55 -6 -22 -8 -41 -6 -43 2 -3 83 -6 179 -8 191
-3 177 -6 191 53 2 10 16 60 30 111 15 52 25 96 22 98 -7 7 -358 10 -362 4z"/>
<path d="M5327 1954 c-2 -2 -45 -6 -207 -19 -14 -1 -28 -3 -32 -3 -6 -2 -26
-42 -82 -164 -27 -60 -31 -72 -18 -64 4 2 55 7 112 11 58 4 119 9 135 10 17 2
39 4 51 4 16 1 32 25 72 109 29 59 52 110 52 114 0 5 -77 7 -83 2z"/>
<path d="M4630 1915 c-13 -18 -90 -197 -90 -212 0 -4 51 -7 112 -6 62 1 139 2
171 2 31 1 57 5 57 10 0 5 20 51 45 103 25 51 45 98 45 104 0 14 -328 13 -340
-1z"/>
<path d="M6619 1853 c-13 -16 -12 -17 4 -4 16 13 21 21 13 21 -2 0 -10 -8 -17
-17z"/>
<path d="M6573 1828 c-13 -6 -23 -15 -23 -20 0 -4 -4 -8 -10 -8 -5 0 -33 -15
-62 -34 -199 -126 -634 -287 -923 -341 -16 -3 -39 -8 -50 -10 -11 -2 -60 -9
-110 -15 -89 -11 -130 -17 -130 -20 0 -1 -11 -3 -24 -6 -22 -4 -72 -34 -99
-61 -8 -7 -33 -27 -58 -44 -49 -34 -56 -43 -20 -29 13 5 26 7 28 4 3 -2 29 1
59 6 30 6 68 13 84 15 32 6 175 32 213 40 13 2 32 7 42 10 10 3 27 7 37 9 10
2 45 11 78 20 33 9 67 18 75 21 51 12 200 63 285 97 179 70 449 223 570 320
74 60 78 65 38 46z"/>
<path d="M4875 1590 c-27 -3 -76 -5 -107 -5 -32 1 -58 -2 -58 -6 0 -4 -27 -44
-60 -88 -65 -88 -66 -84 25 -81 28 1 86 3 130 5 44 2 87 3 95 4 9 1 23 13 32
29 9 15 27 38 40 52 30 32 55 72 54 85 -1 11 -70 13 -151 5z"/>
<path d="M4217 1499 l-56 -87 82 -2 c45 0 117 -2 160 -3 44 -1 82 0 85 3 19
14 128 169 121 171 -2 0 -79 2 -170 3 l-166 3 -56 -88z"/>
<path d="M5850 1401 c-25 -15 -187 -71 -295 -102 -146 -43 -167 -48 -200 -53
-16 -3 -48 -10 -70 -16 -22 -6 -56 -13 -75 -16 -49 -7 -77 -12 -98 -18 -9 -2
-42 -7 -73 -11 -31 -3 -65 -7 -75 -9 -11 -2 -53 -7 -94 -11 -41 -4 -88 -9
-105 -11 -82 -8 -268 -17 -420 -18 -167 -2 -171 -2 -252 -35 -46 -19 -83 -36
-83 -39 0 -5 529 5 595 12 22 2 69 7 105 10 36 3 74 8 85 10 11 2 45 7 75 11
106 15 156 24 205 37 22 6 54 12 70 15 17 3 64 14 105 25 41 11 82 21 90 23
76 18 256 80 365 126 17 7 32 13 35 14 45 15 130 54 130 59 0 8 -2 7 -20 -3z"/>
<path d="M5077 1354 c-1 -1 -36 -5 -77 -8 -219 -18 -193 -11 -278 -77 -42 -34
-79 -63 -80 -64 -5 -4 125 2 213 10 81 8 87 11 175 78 84 64 83 64 65 64 -8 0
-16 -1 -18 -3z"/>
<path d="M4526 1323 c-1 -2 -34 -3 -72 -4 -64 -1 -73 -4 -107 -34 -21 -18 -54
-47 -74 -63 l-38 -30 151 -1 151 -1 69 52 c79 60 99 78 87 79 -19 2 -165 4
-167 2z"/>
</g>
</svg>
